<?xml version="1.0" standalone="no"?>
<!DOCTYPE svg PUBLIC "-//W3C//DTD SVG 20010904//EN"
 "http://www.w3.org/TR/2001/REC-SVG-20010904/DTD/svg10.dtd">
<svg version="1.0" xmlns="http://www.w3.org/2000/svg"
 width="49.000000pt" height="48.000000pt" viewBox="0 0 49.000000 48.000000"
 preserveAspectRatio="xMidYMid meet">

<g transform="translate(0.000000,48.000000) scale(0.100000,-0.100000)"
fill="#000000" stroke="none">
<path d="M200 378 c-48 -25 -90 -89 -90 -138 0 -49 42 -113 90 -137 56 -29 84
-29 140 0 48 24 90 88 90 137 0 49 -42 113 -90 138 -24 12 -56 22 -70 22 -14
0 -46 -10 -70 -22z m15 -41 c-43 -43 -54 -95 -31 -146 l17 -36 -31 33 c-44 48
-42 93 9 143 21 22 45 39 54 39 10 0 4 -11 -18 -33z m134 -1 c32 -17 51 -54
51 -99 l-1 -32 -13 38 c-18 50 -34 67 -81 88 -38 18 -38 19 -12 19 15 0 40 -6
56 -14z m-24 -46 c42 -46 7 -123 -55 -123 -62 0 -97 77 -55 123 25 27 85 27
110 0z m35 -122 c-7 -12 -22 -31 -34 -40 -23 -19 -92 -24 -116 -8 -11 7 -3 10
28 10 50 0 97 21 113 51 6 11 13 18 16 16 2 -3 -1 -16 -7 -29z"/>
</g>
</svg>
